{
    "asset" : {
        "generator" : "Khronos glTF Blender I/O v1.2.75",
        "version" : "2.0"
    },
    "scene" : 0,
    "scenes" : [
        {
            "name" : "Scene",
            "nodes" : [
                0,
                1,
                2,
                16
            ]
        }
    ],
    "nodes" : [
        {
            "mesh" : 0,
            "name" : "Character"
        },
        {
            "name" : "Light",
            "rotation" : [
                0.16907575726509094,
                0.7558803558349609,
                -0.27217137813568115,
                0.570947527885437
            ],
            "translation" : [
                4.076245307922363,
                5.903861999511719,
                -1.0054539442062378
            ]
        },
        {
            "name" : "Camera",
            "rotation" : [
                0.483536034822464,
                0.33687159419059753,
                -0.20870360732078552,
                0.7804827094078064
            ],
            "translation" : [
                7.358891487121582,
                4.958309173583984,
                6.925790786743164
            ]
        },
        {
            "name" : "Head",
            "rotation" : [
                4.8083268922027855e-08,
                -6.038239064309892e-08,
                -0.0020861022640019655,
                0.9999979138374329
            ],
            "translation" : [
                0,
                0.6702699661254883,
                0
            ]
        },
        {
            "children" : [
                3
            ],
            "name" : "Neck",
            "translation" : [
                0,
                1.1469066143035889,
                0
            ]
        },
        {
            "name" : "Hand.L",
            "rotation" : [
                0.03790699690580368,
                -0.00028247523005120456,
                -0.007446004077792168,
                0.999253511428833
            ],
            "scale" : [
                0.9999999403953552,
                0.9999998807907104,
                0.9999998807907104
            ],
            "translation" : [
                2.359628226145105e-08,
                1.3942033052444458,
                1.6919685208449664e-08
            ]
        },
        {
            "children" : [
                5
            ],
            "name" : "LowerArm.L",
            "rotation" : [
                0.04265801981091499,
                -0.0009222175576724112,
                0.021588312461972237,
                0.9988560676574707
            ],
            "scale" : [
                1,
                1,
                0.9999999403953552
            ],
            "translation" : [
                -3.033484858860902e-07,
                1.6920642852783203,
                -3.725290298461914e-09
            ]
        },
        {
            "children" : [
                6
            ],
            "name" : "UpperArm.L",
            "rotation" : [
                -0.042163506150245667,
                -0.006541898008435965,
                0.15318281948566437,
                0.9872763156890869
            ],
            "scale" : [
                1.0000001192092896,
                1,
                0.9999999403953552
            ],
            "translation" : [
                1.9539925233402755e-14,
                1.6493157148361206,
                -2.842170943040401e-14
            ]
        },
        {
            "children" : [
                7
            ],
            "name" : "Sholder.L",
            "rotation" : [
                8.8341217008292e-08,
                8.991928979185104e-08,
                -0.8219256401062012,
                0.5695948600769043
            ],
            "translation" : [
                0,
                1.1469066143035889,
                0
            ]
        },
        {
            "children" : [
                4,
                8
            ],
            "name" : "Back3",
            "translation" : [
                0,
                0.9756152629852295,
                0
            ]
        },
        {
            "children" : [
                9
            ],
            "name" : "Back2",
            "translation" : [
                0,
                0.997957706451416,
                0
            ]
        },
        {
            "children" : [
                10
            ],
            "name" : "Back1",
            "translation" : [
                0,
                1,
                0
            ]
        },
        {
            "name" : "Foot.L",
            "rotation" : [
                -0.3536320626735687,
                0.00011920872202608734,
                0.5339614748954773,
                0.7680036425590515
            ],
            "scale" : [
                1.0000001192092896,
                1.0000001192092896,
                1
            ],
            "translation" : [
                2.0195670913381036e-08,
                3.224296808242798,
                2.090089878947765e-08
            ]
        },
        {
            "children" : [
                12
            ],
            "name" : "LowerLeg.L",
            "rotation" : [
                0.03364865854382515,
                -2.6588711989461444e-05,
                -0.03333002328872681,
                0.9988778233528137
            ],
            "scale" : [
                1,
                1.0000001192092896,
                1
            ],
            "translation" : [
                4.470348358154297e-08,
                2.554309129714966,
                3.725290298461914e-08
            ]
        },
        {
            "children" : [
                13
            ],
            "name" : "UpperLeg.L",
            "rotation" : [
                0.8802406191825867,
                -0.007284678053110838,
                -0.4737793505191803,
                0.025620540603995323
            ],
            "scale" : [
                0.9999983310699463,
                0.9999999403953552,
                0.9999669194221497
            ],
            "translation" : [
                0.9569640755653381,
                0.20574766397476196,
                1.8090702269546455e-07
            ]
        },
        {
            "children" : [
                11,
                14
            ],
            "name" : "Root"
        },
        {
            "children" : [
                15
            ],
            "name" : "Armature",
            "scale" : [
                0.1626279354095459,
                0.1626279354095459,
                0.1626279354095459
            ],
            "translation" : [
                0,
                0.9899750351905823,
                0
            ]
        }
    ],
    "materials" : [
        {
            "doubleSided" : true,
            "emissiveFactor" : [
                0,
                0,
                0
            ],
            "name" : "Material",
            "pbrMetallicRoughness" : {
                "baseColorTexture" : {
                    "index" : 0,
                    "texCoord" : 0
                },
                "metallicFactor" : 0,
                "roughnessFactor" : 0.4000000059604645
            }
        }
    ],
    "meshes" : [
        {
            "name" : "Cube",
            "primitives" : [
                {
                    "attributes" : {
                        "POSITION" : 0,
                        "NORMAL" : 1,
                        "TEXCOORD_0" : 2
                    },
                    "indices" : 3,
                    "material" : 0
                }
            ]
        }
    ],
    "textures" : [
        {
            "sampler" : 0,
            "source" : 0
        }
    ],
    "images" : [
        {
            "bufferView" : 4,
            "mimeType" : "image/png",
            "name" : "palette"
        }
    ],
    "accessors" : [
        {
            "bufferView" : 0,
            "componentType" : 5126,
            "count" : 299,
            "max" : [
                1.0706199407577515,
                2.0695412158966064,
                0.40007221698760986
            ],
            "min" : [
                0,
                -0.004158616065979004,
                -0.1827610731124878
            ],
            "type" : "VEC3"
        },
        {
            "bufferView" : 1,
            "componentType" : 5126,
            "count" : 299,
            "type" : "VEC3"
        },
        {
            "bufferView" : 2,
            "componentType" : 5126,
            "count" : 299,
            "type" : "VEC2"
        },
        {
            "bufferView" : 3,
            "componentType" : 5123,
            "count" : 471,
            "type" : "SCALAR"
        }
    ],
    "bufferViews" : [
        {
            "buffer" : 0,
            "byteLength" : 3588,
            "byteOffset" : 0
        },
        {
            "buffer" : 0,
            "byteLength" : 3588,
            "byteOffset" : 3588
        },
        {
            "buffer" : 0,
            "byteLength" : 2392,
            "byteOffset" : 7176
        },
        {
            "buffer" : 0,
            "byteLength" : 942,
            "byteOffset" : 9568
        },
        {
            "buffer" : 0,
            "byteLength" : 3649,
            "byteOffset" : 10512
        }
    ],
    "samplers" : [
        {
            "magFilter" : 9728,
            "minFilter" : 9984
        }
    ],
    "buffers" : [
        {
            "byteLength" : 14164,
            "uri" : "data:application/octet-stream;base64,"
        }
    ]
}
